<svg width="2584" height="740" viewBox="0 0 2584 740" fill="none" xmlns="http://www.w3.org/2000/svg">
<g filter="url(#filter0_d_1_30)">
<path d="M712 605C682.667 605 657.167 599.167 635.5 587.5C613.833 575.5 597 559.333 585 539C573 518.333 567 494.833 567 468.5C567 448.167 570.333 429.5 577 412.5C583.667 395.5 593 380.833 605 368.5C617 355.833 631.167 346.167 647.5 339.5C664.167 332.5 682.333 329 702 329C720.667 329 737.667 332.333 753 339C768.667 345.667 782.167 355 793.5 367C804.833 379 813.5 393.167 819.5 409.5C825.5 425.833 828.167 443.667 827.5 463L827 484.5H615.5L604 439.5H762L753.5 449V439C752.833 430.667 750.167 423.333 745.5 417C741.167 410.333 735.333 405.167 728 401.5C720.667 397.833 712.333 396 703 396C690 396 678.833 398.667 669.5 404C660.5 409 653.667 416.5 649 426.5C644.333 436.167 642 448.167 642 462.5C642 477.167 645 490 651 501C657.333 511.667 666.333 520 678 526C690 532 704.167 535 720.5 535C731.833 535 741.833 533.333 750.5 530C759.5 526.667 769.167 521 779.5 513L817 566C806.667 575 795.667 582.333 784 588C772.333 593.667 760.333 597.833 748 600.5C736 603.5 724 605 712 605ZM1037.97 605.5C1025.97 605.5 1014.47 603.833 1003.47 600.5C992.469 597.167 982.469 592.667 973.469 587C964.802 581.333 957.469 574.833 951.469 567.5C945.802 559.833 941.969 552 939.969 544L957.469 538L952.969 599.5H878.469V230H958.969V398L942.469 392C944.469 383.333 948.302 375.333 953.969 368C959.635 360.333 966.802 353.667 975.469 348C984.135 342 993.635 337.333 1003.97 334C1014.3 330.667 1024.97 329 1035.97 329C1058.97 329 1079.3 335 1096.97 347C1114.97 358.667 1129.14 375 1139.47 396C1149.8 416.667 1154.97 440.333 1154.97 467C1154.97 494 1149.8 518 1139.47 539C1129.47 559.667 1115.64 576 1097.97 588C1080.3 599.667 1060.3 605.5 1037.97 605.5ZM1016.97 538C1028.97 538 1039.47 535 1048.47 529C1057.47 523 1064.3 514.833 1068.97 504.5C1073.97 493.833 1076.47 481.333 1076.47 467C1076.47 453 1073.97 440.667 1068.97 430C1064.3 419.333 1057.47 411.167 1048.47 405.5C1039.47 399.833 1028.97 397 1016.97 397C1004.64 397 993.969 399.833 984.969 405.5C975.969 411.167 968.969 419.333 963.969 430C958.969 440.667 956.469 453 956.469 467C956.469 481.333 958.969 493.833 963.969 504.5C968.969 514.833 975.969 523 984.969 529C993.969 535 1004.64 538 1016.97 538ZM1268.14 600V325H1164.14V250H1459.64V325H1353.14V600H1268.14ZM1481.5 600V334.5H1557.5L1561 421L1546 404.5C1550 390.167 1556.5 377.333 1565.5 366C1574.83 354.667 1585.66 345.667 1598 339C1610.33 332.333 1623.5 329 1637.5 329C1643.5 329 1649 329.5 1654 330.5C1659.33 331.5 1664.16 332.667 1668.5 334L1646.5 422.5C1642.83 420.167 1637.83 418.333 1631.5 417C1625.5 415.333 1619.16 414.5 1612.5 414.5C1605.16 414.5 1598.33 415.833 1592 418.5C1585.66 420.833 1580.33 424.333 1576 429C1571.66 433.667 1568.16 439.167 1565.5 445.5C1563.16 451.833 1562 459 1562 467V600H1481.5ZM1795.8 604.5C1773.47 604.5 1753.47 598.667 1735.8 587C1718.47 575 1704.64 558.667 1694.3 538C1683.97 517 1678.8 493.333 1678.8 467C1678.8 440 1683.97 416.167 1694.3 395.5C1704.64 374.833 1718.8 358.667 1736.8 347C1754.8 335 1775.3 329 1798.3 329C1810.97 329 1822.47 330.833 1832.8 334.5C1843.47 338.167 1852.8 343.333 1860.8 350C1868.8 356.333 1875.64 363.833 1881.3 372.5C1886.97 380.833 1891.14 389.833 1893.8 399.5L1877.3 397.5V334.5H1956.8V600H1875.8V536L1893.8 535.5C1891.14 544.833 1886.8 553.667 1880.8 562C1874.8 570.333 1867.47 577.667 1858.8 584C1850.14 590.333 1840.47 595.333 1829.8 599C1819.14 602.667 1807.8 604.5 1795.8 604.5ZM1817.8 537C1830.14 537 1840.8 534.167 1849.8 528.5C1858.8 522.833 1865.8 514.833 1870.8 504.5C1875.8 493.833 1878.3 481.333 1878.3 467C1878.3 452.667 1875.8 440.333 1870.8 430C1865.8 419.333 1858.8 411.167 1849.8 405.5C1840.8 399.5 1830.14 396.5 1817.8 396.5C1805.8 396.5 1795.3 399.5 1786.3 405.5C1777.64 411.167 1770.8 419.333 1765.8 430C1760.8 440.333 1758.3 452.667 1758.3 467C1758.3 481.333 1760.8 493.833 1765.8 504.5C1770.8 514.833 1777.64 522.833 1786.3 528.5C1795.3 534.167 1805.8 537 1817.8 537ZM2143.89 605C2118.23 605 2095.23 599 2074.89 587C2054.56 575 2038.39 558.667 2026.39 538C2014.73 517 2008.89 493.333 2008.89 467C2008.89 440.667 2014.73 417.167 2026.39 396.5C2038.39 375.5 2054.56 359 2074.89 347C2095.23 335 2118.23 329 2143.89 329C2167.56 329 2189.23 333.167 2208.89 341.5C2228.89 349.833 2244.73 361.5 2256.39 376.5L2212.89 428.5C2208.23 423.167 2202.73 418.167 2196.39 413.5C2190.06 408.833 2183.06 405.167 2175.39 402.5C2167.73 399.833 2159.73 398.5 2151.39 398.5C2138.73 398.5 2127.56 401.5 2117.89 407.5C2108.23 413.167 2100.73 421.167 2095.39 431.5C2090.06 441.833 2087.39 453.667 2087.39 467C2087.39 479.667 2090.06 491.167 2095.39 501.5C2101.06 511.833 2108.73 520 2118.39 526C2128.06 532 2139.06 535 2151.39 535C2160.06 535 2168.06 534 2175.39 532C2182.73 529.667 2189.39 526.333 2195.39 522C2201.73 517.667 2207.56 512.333 2212.89 506L2255.89 558.5C2244.56 572.833 2228.73 584.167 2208.39 592.5C2188.39 600.833 2166.89 605 2143.89 605ZM2376.86 522L2347.36 462L2471.36 334.5H2576.86L2376.86 522ZM2299.86 600V230H2379.86V600H2299.86ZM2479.86 600L2386.36 479L2442.86 435L2574.36 600H2479.86Z" fill="#E1E1E1"/>
</g>
<g filter="url(#filter1_d_1_30)">
<rect x="4" y="162" width="545.559" height="510" rx="100" fill="#E1E1E1"/>
</g>
<path d="M143.715 602.5C125.382 602.5 110.048 594.833 97.7148 579.5C85.3815 564.167 79.2148 543.167 79.2148 516.5C79.2148 502.833 80.7148 487.5 83.7148 470.5C86.7148 453.167 90.2148 435.667 94.2148 418C98.2148 400.333 101.715 383.833 104.715 368.5C107.715 352.833 109.215 339.833 109.215 329.5C109.215 322.167 108.215 316.5 106.215 312.5C104.215 308.167 100.548 306 95.2148 306C91.2148 306 86.5482 307.833 81.2148 311.5C75.8815 315.167 71.8815 322.333 69.2148 333L64.2148 331C64.2148 302.333 70.7148 279.667 83.7148 263C97.0482 246.333 114.882 238 137.215 238C158.215 238 172.715 244.833 180.715 258.5C189.048 272.167 193.215 289.333 193.215 310C193.215 325.333 191.548 341.667 188.215 359C185.215 376.333 181.715 393.667 177.715 411C173.715 428 170.048 443.833 166.715 458.5C163.715 473.167 162.215 485.333 162.215 495C162.215 509.333 165.882 516.5 173.215 516.5C177.548 516.5 183.382 513.5 190.715 507.5C198.048 501.167 205.715 492.667 213.715 482C222.048 471 230.048 458.667 237.715 445C245.382 431 251.882 416.333 257.215 401C256.548 393.667 256.048 386.667 255.715 380C255.382 373 255.215 366.833 255.215 361.5C255.215 334.833 257.715 313.333 262.715 297C268.048 280.667 274.715 268.667 282.715 261C290.715 253.333 298.882 249.5 307.215 249.5C318.882 249.5 329.382 256 338.715 269C348.048 281.667 352.715 299 352.715 321C352.715 334.667 350.215 350 345.215 367C340.215 383.667 331.882 401.5 320.215 420.5C319.215 449.167 322.382 472.333 329.715 490C337.048 507.667 346.215 516.5 357.215 516.5C364.215 516.5 371.715 513 379.715 506C388.048 498.667 395.715 488.667 402.715 476C409.715 463 415.382 448 419.715 431C424.382 414 426.715 395.833 426.715 376.5C426.715 365.167 425.882 353.333 424.215 341C422.882 328.667 421.048 316.833 418.715 305.5C416.715 294.167 414.548 284.833 412.215 277.5C412.215 271.833 414.548 266.167 419.215 260.5C424.215 254.5 430.548 249.5 438.215 245.5C445.882 241.167 453.715 239 461.715 239C469.715 239 477.382 241.833 484.715 247.5C492.048 253.167 498.048 263.167 502.715 277.5C507.382 291.5 509.715 311.5 509.715 337.5C509.715 373.833 505.048 408 495.715 440C486.382 471.667 473.715 499.667 457.715 524C442.048 548.333 424.715 567.5 405.715 581.5C386.715 595.167 367.382 602 347.715 602C330.382 602 316.048 596.667 304.715 586C293.382 575.333 284.548 561 278.215 543C271.882 525 267.382 505 264.715 483C252.715 511.667 239.715 534.833 225.715 552.5C211.715 569.833 197.715 582.5 183.715 590.5C169.715 598.5 156.382 602.5 143.715 602.5Z" fill="black"/>
<defs>
<filter id="filter0_d_1_30" x="563" y="230" width="2017.86" height="383.5" filterUnits="userSpaceOnUse" color-interpolation-filters="sRGB">
<feFlood flood-opacity="0" result="BackgroundImageFix"/>
<feColorMatrix in="SourceAlpha" type="matrix" values="0 0 0 0 0 0 0 0 0 0 0 0 0 0 0 0 0 0 127 0" result="hardAlpha"/>
<feOffset dy="4"/>
<feGaussianBlur stdDeviation="2"/>
<feComposite in2="hardAlpha" operator="out"/>
<feColorMatrix type="matrix" values="0 0 0 0 0 0 0 0 0 0 0 0 0 0 0 0 0 0 0.25 0"/>
<feBlend mode="normal" in2="BackgroundImageFix" result="effect1_dropShadow_1_30"/>
<feBlend mode="normal" in="SourceGraphic" in2="effect1_dropShadow_1_30" result="shape"/>
</filter>
<filter id="filter1_d_1_30" x="0" y="162" width="553.559" height="518" filterUnits="userSpaceOnUse" color-interpolation-filters="sRGB">
<feFlood flood-opacity="0" result="BackgroundImageFix"/>
<feColorMatrix in="SourceAlpha" type="matrix" values="0 0 0 0 0 0 0 0 0 0 0 0 0 0 0 0 0 0 127 0" result="hardAlpha"/>
<feOffset dy="4"/>
<feGaussianBlur stdDeviation="2"/>
<feComposite in2="hardAlpha" operator="out"/>
<feColorMatrix type="matrix" values="0 0 0 0 0 0 0 0 0 0 0 0 0 0 0 0 0 0 0.25 0"/>
<feBlend mode="normal" in2="BackgroundImageFix" result="effect1_dropShadow_1_30"/>
<feBlend mode="normal" in="SourceGraphic" in2="effect1_dropShadow_1_30" result="shape"/>
</filter>
</defs>
</svg>
