<svg width="2980" height="750" viewBox="0 0 2980 750" fill="none" xmlns="http://www.w3.org/2000/svg">
<rect width="2980" height="750" fill="#1E1E1E"/>
<rect width="2980" height="750" fill="black"/>
<g filter="url(#filter0_d_0_1)">
<path d="M908.276 610C878.942 610 853.442 604.167 831.776 592.5C810.109 580.5 793.276 564.333 781.276 544C769.276 523.333 763.276 499.833 763.276 473.5C763.276 453.167 766.609 434.5 773.276 417.5C779.942 400.5 789.276 385.833 801.276 373.5C813.276 360.833 827.442 351.167 843.776 344.5C860.442 337.5 878.609 334 898.276 334C916.942 334 933.942 337.333 949.276 344C964.942 350.667 978.442 360 989.776 372C1001.11 384 1009.78 398.167 1015.78 414.5C1021.78 430.833 1024.44 448.667 1023.78 468L1023.28 489.5H811.776L800.276 444.5H958.276L949.776 454V444C949.109 435.667 946.442 428.333 941.776 422C937.442 415.333 931.609 410.167 924.276 406.5C916.942 402.833 908.609 401 899.276 401C886.276 401 875.109 403.667 865.776 409C856.776 414 849.942 421.5 845.276 431.5C840.609 441.167 838.276 453.167 838.276 467.5C838.276 482.167 841.276 495 847.276 506C853.609 516.667 862.609 525 874.276 531C886.276 537 900.442 540 916.776 540C928.109 540 938.109 538.333 946.776 535C955.776 531.667 965.442 526 975.776 518L1013.28 571C1002.94 580 991.942 587.333 980.276 593C968.609 598.667 956.609 602.833 944.276 605.5C932.276 608.5 920.276 610 908.276 610ZM1234.24 610.5C1222.24 610.5 1210.74 608.833 1199.74 605.5C1188.74 602.167 1178.74 597.667 1169.74 592C1161.08 586.333 1153.74 579.833 1147.74 572.5C1142.08 564.833 1138.24 557 1136.24 549L1153.74 543L1149.24 604.5H1074.74V235H1155.24V403L1138.74 397C1140.74 388.333 1144.58 380.333 1150.24 373C1155.91 365.333 1163.08 358.667 1171.74 353C1180.41 347 1189.91 342.333 1200.24 339C1210.58 335.667 1221.24 334 1232.24 334C1255.24 334 1275.58 340 1293.24 352C1311.24 363.667 1325.41 380 1335.74 401C1346.08 421.667 1351.24 445.333 1351.24 472C1351.24 499 1346.08 523 1335.74 544C1325.74 564.667 1311.91 581 1294.24 593C1276.58 604.667 1256.58 610.5 1234.24 610.5ZM1213.24 543C1225.24 543 1235.74 540 1244.74 534C1253.74 528 1260.58 519.833 1265.24 509.5C1270.24 498.833 1272.74 486.333 1272.74 472C1272.74 458 1270.24 445.667 1265.24 435C1260.58 424.333 1253.74 416.167 1244.74 410.5C1235.74 404.833 1225.24 402 1213.24 402C1200.91 402 1190.24 404.833 1181.24 410.5C1172.24 416.167 1165.24 424.333 1160.24 435C1155.24 445.667 1152.74 458 1152.74 472C1152.74 486.333 1155.24 498.833 1160.24 509.5C1165.24 519.833 1172.24 528 1181.24 534C1190.24 540 1200.91 543 1213.24 543ZM1464.42 605V330H1360.42V255H1655.92V330H1549.42V605H1464.42ZM1677.77 605V339.5H1753.77L1757.27 426L1742.27 409.5C1746.27 395.167 1752.77 382.333 1761.77 371C1771.11 359.667 1781.94 350.667 1794.27 344C1806.61 337.333 1819.77 334 1833.77 334C1839.77 334 1845.27 334.5 1850.27 335.5C1855.61 336.5 1860.44 337.667 1864.77 339L1842.77 427.5C1839.11 425.167 1834.11 423.333 1827.77 422C1821.77 420.333 1815.44 419.5 1808.77 419.5C1801.44 419.5 1794.61 420.833 1788.27 423.5C1781.94 425.833 1776.61 429.333 1772.27 434C1767.94 438.667 1764.44 444.167 1761.77 450.5C1759.44 456.833 1758.27 464 1758.27 472V605H1677.77ZM1992.08 609.5C1969.75 609.5 1949.75 603.667 1932.08 592C1914.75 580 1900.91 563.667 1890.58 543C1880.25 522 1875.08 498.333 1875.08 472C1875.08 445 1880.25 421.167 1890.58 400.5C1900.91 379.833 1915.08 363.667 1933.08 352C1951.08 340 1971.58 334 1994.58 334C2007.25 334 2018.75 335.833 2029.08 339.5C2039.75 343.167 2049.08 348.333 2057.08 355C2065.08 361.333 2071.91 368.833 2077.58 377.5C2083.25 385.833 2087.41 394.833 2090.08 404.5L2073.58 402.5V339.5H2153.08V605H2072.08V541L2090.08 540.5C2087.41 549.833 2083.08 558.667 2077.08 567C2071.08 575.333 2063.75 582.667 2055.08 589C2046.41 595.333 2036.75 600.333 2026.08 604C2015.41 607.667 2004.08 609.5 1992.08 609.5ZM2014.08 542C2026.41 542 2037.08 539.167 2046.08 533.5C2055.08 527.833 2062.08 519.833 2067.08 509.5C2072.08 498.833 2074.58 486.333 2074.58 472C2074.58 457.667 2072.08 445.333 2067.08 435C2062.08 424.333 2055.08 416.167 2046.08 410.5C2037.08 404.5 2026.41 401.5 2014.08 401.5C2002.08 401.5 1991.58 404.5 1982.58 410.5C1973.91 416.167 1967.08 424.333 1962.08 435C1957.08 445.333 1954.58 457.667 1954.58 472C1954.58 486.333 1957.08 498.833 1962.08 509.5C1967.08 519.833 1973.91 527.833 1982.58 533.5C1991.58 539.167 2002.08 542 2014.08 542ZM2340.17 610C2314.5 610 2291.5 604 2271.17 592C2250.84 580 2234.67 563.667 2222.67 543C2211 522 2205.17 498.333 2205.17 472C2205.17 445.667 2211 422.167 2222.67 401.5C2234.67 380.5 2250.84 364 2271.17 352C2291.5 340 2314.5 334 2340.17 334C2363.84 334 2385.5 338.167 2405.17 346.5C2425.17 354.833 2441 366.5 2452.67 381.5L2409.17 433.5C2404.5 428.167 2399 423.167 2392.67 418.5C2386.34 413.833 2379.34 410.167 2371.67 407.5C2364 404.833 2356 403.5 2347.67 403.5C2335 403.5 2323.84 406.5 2314.17 412.5C2304.5 418.167 2297 426.167 2291.67 436.5C2286.34 446.833 2283.67 458.667 2283.67 472C2283.67 484.667 2286.34 496.167 2291.67 506.5C2297.34 516.833 2305 525 2314.67 531C2324.34 537 2335.34 540 2347.67 540C2356.34 540 2364.34 539 2371.67 537C2379 534.667 2385.67 531.333 2391.67 527C2398 522.667 2403.84 517.333 2409.17 511L2452.17 563.5C2440.84 577.833 2425 589.167 2404.67 597.5C2384.67 605.833 2363.17 610 2340.17 610ZM2573.13 527L2543.63 467L2667.63 339.5H2773.13L2573.13 527ZM2496.13 605V235H2576.13V605H2496.13ZM2676.13 605L2582.63 484L2639.13 440L2770.63 605H2676.13Z" fill="#E1E1E1"/>
</g>
<g filter="url(#filter1_d_0_1)">
<rect x="200.276" y="167" width="545.559" height="510" rx="100" fill="#E1E1E1"/>
</g>
<path d="M339.99 607.5C321.657 607.5 306.324 599.833 293.99 584.5C281.657 569.167 275.49 548.167 275.49 521.5C275.49 507.833 276.99 492.5 279.99 475.5C282.99 458.167 286.49 440.667 290.49 423C294.49 405.333 297.99 388.833 300.99 373.5C303.99 357.833 305.49 344.833 305.49 334.5C305.49 327.167 304.49 321.5 302.49 317.5C300.49 313.167 296.824 311 291.49 311C287.49 311 282.824 312.833 277.49 316.5C272.157 320.167 268.157 327.333 265.49 338L260.49 336C260.49 307.333 266.99 284.667 279.99 268C293.324 251.333 311.157 243 333.49 243C354.49 243 368.99 249.833 376.99 263.5C385.324 277.167 389.49 294.333 389.49 315C389.49 330.333 387.824 346.667 384.49 364C381.49 381.333 377.99 398.667 373.99 416C369.99 433 366.324 448.833 362.99 463.5C359.99 478.167 358.49 490.333 358.49 500C358.49 514.333 362.157 521.5 369.49 521.5C373.824 521.5 379.657 518.5 386.99 512.5C394.324 506.167 401.99 497.667 409.99 487C418.324 476 426.324 463.667 433.99 450C441.657 436 448.157 421.333 453.49 406C452.824 398.667 452.324 391.667 451.99 385C451.657 378 451.49 371.833 451.49 366.5C451.49 339.833 453.99 318.333 458.99 302C464.324 285.667 470.99 273.667 478.99 266C486.99 258.333 495.157 254.5 503.49 254.5C515.157 254.5 525.657 261 534.99 274C544.324 286.667 548.99 304 548.99 326C548.99 339.667 546.49 355 541.491 372C536.49 388.667 528.157 406.5 516.49 425.5C515.49 454.167 518.657 477.333 525.99 495C533.324 512.667 542.49 521.5 553.49 521.5C560.49 521.5 567.99 518 575.991 511C584.324 503.667 591.99 493.667 598.991 481C605.99 468 611.657 453 615.99 436C620.657 419 622.99 400.833 622.99 381.5C622.99 370.167 622.157 358.333 620.49 346C619.157 333.667 617.324 321.833 614.991 310.5C612.99 299.167 610.824 289.833 608.491 282.5C608.491 276.833 610.824 271.167 615.491 265.5C620.49 259.5 626.824 254.5 634.49 250.5C642.157 246.167 649.99 244 657.99 244C665.99 244 673.657 246.833 680.99 252.5C688.324 258.167 694.324 268.167 698.99 282.5C703.657 296.5 705.99 316.5 705.99 342.5C705.99 378.833 701.324 413 691.991 445C682.657 476.667 669.991 504.667 653.991 529C638.324 553.333 620.99 572.5 601.99 586.5C582.991 600.167 563.657 607 543.99 607C526.657 607 512.324 601.667 500.99 591C489.657 580.333 480.824 566 474.49 548C468.157 530 463.657 510 460.99 488C448.99 516.667 435.99 539.833 421.99 557.5C407.99 574.833 393.99 587.5 379.99 595.5C365.99 603.5 352.657 607.5 339.99 607.5Z" fill="black"/>
<defs>
<filter id="filter0_d_0_1" x="759.276" y="235" width="2017.86" height="383.5" filterUnits="userSpaceOnUse" color-interpolation-filters="sRGB">
<feFlood flood-opacity="0" result="BackgroundImageFix"/>
<feColorMatrix in="SourceAlpha" type="matrix" values="0 0 0 0 0 0 0 0 0 0 0 0 0 0 0 0 0 0 127 0" result="hardAlpha"/>
<feOffset dy="4"/>
<feGaussianBlur stdDeviation="2"/>
<feComposite in2="hardAlpha" operator="out"/>
<feColorMatrix type="matrix" values="0 0 0 0 0 0 0 0 0 0 0 0 0 0 0 0 0 0 0.25 0"/>
<feBlend mode="normal" in2="BackgroundImageFix" result="effect1_dropShadow_0_1"/>
<feBlend mode="normal" in="SourceGraphic" in2="effect1_dropShadow_0_1" result="shape"/>
</filter>
<filter id="filter1_d_0_1" x="196.276" y="167" width="553.559" height="518" filterUnits="userSpaceOnUse" color-interpolation-filters="sRGB">
<feFlood flood-opacity="0" result="BackgroundImageFix"/>
<feColorMatrix in="SourceAlpha" type="matrix" values="0 0 0 0 0 0 0 0 0 0 0 0 0 0 0 0 0 0 127 0" result="hardAlpha"/>
<feOffset dy="4"/>
<feGaussianBlur stdDeviation="2"/>
<feComposite in2="hardAlpha" operator="out"/>
<feColorMatrix type="matrix" values="0 0 0 0 0 0 0 0 0 0 0 0 0 0 0 0 0 0 0.25 0"/>
<feBlend mode="normal" in2="BackgroundImageFix" result="effect1_dropShadow_0_1"/>
<feBlend mode="normal" in="SourceGraphic" in2="effect1_dropShadow_0_1" result="shape"/>
</filter>
</defs>
</svg>
